<?xml version="1.0" encoding="UTF-8" standalone="no"?>
<svg width="32px" height="29px" viewBox="0 0 32 29" version="1.1" xmlns="http://www.w3.org/2000/svg" xmlns:xlink="http://www.w3.org/1999/xlink" xmlns:sketch="http://www.bohemiancoding.com/sketch/ns">
    <!-- Generator: Sketch 3.0.4 (8053) - http://www.bohemiancoding.com/sketch -->
    <title>big-swift</title>
    <desc>Created with Sketch.</desc>
    <defs></defs>
    <g id="Page-1" stroke="none" stroke-width="1" fill="none" fill-rule="evenodd" sketch:type="MSPage">
        <g id="sketch" sketch:type="MSArtboardGroup" transform="translate(-166.000000, -879.000000)" stroke="#00BDEF" stroke-width="2" fill="#FFFFFF" fill-opacity="0">
            <g id="intro" sketch:type="MSLayerGroup" transform="translate(0.000000, -517.000000)">
                <g id="Group" transform="translate(150.000000, 960.000000)" sketch:type="MSShapeGroup">
                    <g id="Sketch-Worshop-+-Learn-iOS-8-and-Sket-+-Fill-56-+-September-22,-2014-+-Limited-space:-20-+-calendar-+-Rectangle-15-+-BUY-TICKET" transform="translate(19.000000, 410.000000)">
                        <g id="Sketch-Worshop-+-Learn-iOS-8-and-Sket-+-Fill-56">
                            <path d="M16.6429687,29.9858407 C28.1179687,37.4619469 24.6093746,46.8637168 24.6093746,46.8637168 C24.6093746,46.8637168 25.8468746,48.279646 26.4656246,50.0353982 C27.0843746,51.7911504 27.0775568,53.9433628 26.9650568,54 C26.8525568,54.0566372 25.4020318,51.5646018 22.8656246,51.5646018 C20.3292173,51.5646018 19.0406237,54 14.5406246,54 C4.40843722,54 0.0140625,45.6318586 0.0140625,45.6318586 C0.0140625,45.6318586 4.471875,48.8460177 9.14062541,48.7327434 C13.8093758,48.619469 15.1031246,47.260177 15.1031246,47.260177 C15.1031246,47.260177 13.0155697,45.5013608 9.421875,41.9646018 C5.82818031,38.4278427 2.446875,33.5539823 2.446875,33.5539823 C2.446875,33.5539823 7.86413164,37.8769766 9.60174226,39.1486203 C11.3393529,40.420264 13.0769635,41.5726911 13.0769635,41.5726911 C13.0769635,41.5726911 11.3941095,39.7447037 10.209375,38.2743657 C9.02464049,36.8040276 5.990625,32.3646018 5.990625,32.3646018 C5.990625,32.3646018 10.6439436,36.5947483 12.7610343,38.2743653 C14.878125,39.9539823 18.928125,42.7858407 18.928125,42.7858407 C18.928125,42.7858407 21.3679687,37.1787611 16.6429687,29.9858407 Z" id="big-swift"></path>
                        </g>
                    </g>
                </g>
            </g>
        </g>
    </g>
</svg>
