<?xml version="1.0" encoding="UTF-8" standalone="no"?>
<svg width="30px" height="31px" viewBox="0 0 30 31" version="1.1" xmlns="http://www.w3.org/2000/svg" xmlns:xlink="http://www.w3.org/1999/xlink" xmlns:sketch="http://www.bohemiancoding.com/sketch/ns">
    <!-- Generator: Sketch 3.0.4 (8053) - http://www.bohemiancoding.com/sketch -->
    <title>big-sketch</title>
    <desc>Created with Sketch.</desc>
    <defs></defs>
    <g id="Page-1" stroke="none" stroke-width="1" fill="none" fill-rule="evenodd" sketch:type="MSPage">
        <g id="sketch" sketch:type="MSArtboardGroup" transform="translate(-168.000000, -704.000000)" fill="#38BBCC">
            <g id="intro" sketch:type="MSLayerGroup" transform="translate(0.000000, -517.000000)">
                <g id="Group" transform="translate(150.000000, 960.000000)" sketch:type="MSShapeGroup">
                    <g id="Sketch-Worshop-+-Learn-iOS-8-and-Sket-+-Fill-56-+-September-22,-2014-+-Limited-space:-20-+-calendar-+-Rectangle-15-+-BUY-TICKET" transform="translate(18.000000, 256.000000)">
                        <g id="Sketch-Worshop-+-Learn-iOS-8-and-Sket-+-Fill-56">
                            <path d="M30,13 C29.9818293,12.5736265 29.9758366,12.5537534 30,13 C29.9498682,12.4444516 29.9518657,12.3530355 30,12 C29.8639725,12.1940509 29.7860672,12.1503301 30,12 C29.7161521,12.0787871 29.7161521,12.0668633 30,12 L23,5 C22.5089093,5.10135265 22.2592127,5 22,5 L8,5 C7.71688236,5 7.46718575,5.10135265 7,5 L0,12 C0.231976894,12.0926982 0.227981748,12.1443682 0,12 C0.174047281,12.2178986 0.132098252,12.233797 0,12 C0.0881516488,12.3132893 0.0941443674,12.3589974 0,12 C0.0342171819,12.5040708 0.00625116203,12.6034361 0,13 C-0.00173912937,12.7743445 0.00824873488,12.8240272 0,13 C0.0262268905,12.9691006 0.00425358918,13.0585294 0,13 C0.0581880561,13.185717 0.104132232,13.2095647 0,13 C0.134095824,13.2592474 0.132098252,13.2711712 0,13 L14,36 C14.3448291,35.825117 14.6644407,36 15,36 C15.3516058,36 15.6712174,35.825117 16,36 L30,13 C29.9019264,13.2473235 29.8979313,13.2055901 30,13 C29.9199046,13.1578947 29.9338876,13.1539201 30,13 C29.9478706,13.1201359 29.9358852,13.0962882 30,13 C29.9978099,12.9174306 30.0137905,12.7604334 30,13 C30,13 30.0137905,12.7604334 30,13 L30,13 L30,13 Z M16,12 L16,7 L17,7 L22,12 L16,12 L16,12 L16,12 L16,12 Z M14,12 L8,12 L13,7 L14,7 L14,12 L14,12 L14,12 L14,12 Z M6,14 L9,23 L3,14 L6,14 L6,14 L6,14 L6,14 Z M8,14 L14,14 L14,32 L12,29 L8,14 L8,14 L8,14 L8,14 Z M16,14 L22,14 L18,28 L18,28 L16,32 L16,14 L16,14 L16,14 L16,14 Z M24,14 L27,14 L22,22 L24,14 L24,14 L24,14 L24,14 Z M27,12 L25,12 L20,7 L22,7 L27,12 L27,12 L27,12 L27,12 Z M8,7 L10,7 L5,12 L3,12 L8,7 L8,7 L8,7 L8,7 Z" id="big-sketch"></path>
                        </g>
                    </g>
                </g>
            </g>
        </g>
    </g>
</svg>